<mxfile host="app.diagrams.net" modified="2021-09-17T20:37:44.567Z" agent="5.0 (Macintosh; Intel Mac OS X 10_15_7) AppleWebKit/537.36 (KHTML, like Gecko) Chrome/93.0.4577.63 Safari/537.36" etag="bz2exAKekxO6qPhCGVZi" version="14.9.6" type="github" pages="2">
  <diagram id="rmbRsz_KTkI2a9vRSri-" name="API GET request">
    <mxGraphModel dx="1528" dy="1106" grid="1" gridSize="10" guides="1" tooltips="1" connect="1" arrows="1" fold="1" page="1" pageScale="1" pageWidth="850" pageHeight="1100" background="none" math="0" shadow="0">
      <root>
        <mxCell id="0" />
        <mxCell id="1" parent="0" />
        <mxCell id="685ewUTSSc5j3Tts2CYO-18" style="edgeStyle=orthogonalEdgeStyle;orthogonalLoop=1;jettySize=auto;html=1;curved=1;endSize=18;strokeWidth=3;fillColor=#dae8fc;strokeColor=#6c8ebf;" edge="1" parent="1" source="685ewUTSSc5j3Tts2CYO-1" target="685ewUTSSc5j3Tts2CYO-14">
          <mxGeometry relative="1" as="geometry">
            <Array as="points">
              <mxPoint x="260" y="435" />
              <mxPoint x="370" y="435" />
            </Array>
          </mxGeometry>
        </mxCell>
        <mxCell id="685ewUTSSc5j3Tts2CYO-1" value="&lt;meta charset=&quot;utf-8&quot;&gt;&lt;b style=&quot;font-weight: normal&quot; id=&quot;docs-internal-guid-5ab22998-7fff-f2c0-620e-b38631f3a3c6&quot;&gt;&lt;img width=&quot;499px;&quot; height=&quot;272px;&quot; src=&quot;https://lh4.googleusercontent.com/1xYEODwa07nD5m-tGIM1fuiqM2jEBtzeKSz4cZSJSh54KMpzlM0Isz_VBXat_G-0lNj4y-RvyjToznpCn7GYSJc37kn4Ux3RHG5eVxuIQ6IN-tDtw4oVRBMRu1QhGtyjNe00OjDa2-rL=s0&quot;&gt;&lt;/b&gt;" style="text;whiteSpace=wrap;html=1;" vertex="1" parent="1">
          <mxGeometry x="10" y="100" width="500" height="280" as="geometry" />
        </mxCell>
        <mxCell id="685ewUTSSc5j3Tts2CYO-3" value="&lt;b style=&quot;font-weight: normal&quot; id=&quot;docs-internal-guid-c2a33dbd-7fff-7a3a-0569-3dfb94fcc11c&quot;&gt;&lt;span style=&quot;font-size: 14pt ; font-family: &amp;#34;arial&amp;#34; ; color: rgb(0 , 0 , 0) ; background-color: transparent ; font-weight: 400 ; font-style: normal ; font-variant: normal ; text-decoration: none ; vertical-align: baseline&quot;&gt;First we set the data inside a folder data &amp;gt; user outside pages&lt;/span&gt;&lt;/b&gt;" style="text;whiteSpace=wrap;html=1;" vertex="1" parent="1">
          <mxGeometry x="10" y="70" width="540" height="30" as="geometry" />
        </mxCell>
        <mxCell id="685ewUTSSc5j3Tts2CYO-20" style="edgeStyle=orthogonalEdgeStyle;orthogonalLoop=1;jettySize=auto;html=1;curved=1;endSize=18;targetPerimeterSpacing=4;fillColor=#dae8fc;strokeColor=#6c8ebf;strokeWidth=3;" edge="1" parent="1" source="685ewUTSSc5j3Tts2CYO-14" target="685ewUTSSc5j3Tts2CYO-19">
          <mxGeometry relative="1" as="geometry" />
        </mxCell>
        <mxCell id="685ewUTSSc5j3Tts2CYO-25" style="edgeStyle=orthogonalEdgeStyle;curved=1;orthogonalLoop=1;jettySize=auto;html=1;entryX=0.75;entryY=0.074;entryDx=0;entryDy=0;entryPerimeter=0;endSize=18;targetPerimeterSpacing=4;strokeColor=#FF8000;strokeWidth=3;" edge="1" parent="1" source="685ewUTSSc5j3Tts2CYO-14" target="685ewUTSSc5j3Tts2CYO-24">
          <mxGeometry relative="1" as="geometry" />
        </mxCell>
        <mxCell id="685ewUTSSc5j3Tts2CYO-14" value="&lt;meta charset=&quot;utf-8&quot;&gt;&lt;b style=&quot;font-weight: normal&quot; id=&quot;docs-internal-guid-f325f49e-7fff-3f7f-cb2f-1353b2531bd9&quot;&gt;&lt;img width=&quot;499px;&quot; height=&quot;272px;&quot; src=&quot;https://lh4.googleusercontent.com/DHze9nckgHhZpiUi-6BIFu7NSEaVvJiNLgIw7e0majbXeCV7YgiYzbyB3Wl5YjPUPnLnB02k26fnO6HOXM8ZGI3_k_xQPbWcZPuydRenJePHbJa5tUbiv4y1YzzRg5WgGtEArNERVd2a=s0&quot;&gt;&lt;/b&gt;" style="text;whiteSpace=wrap;html=1;" vertex="1" parent="1">
          <mxGeometry x="20" y="490" width="500" height="280" as="geometry" />
        </mxCell>
        <mxCell id="685ewUTSSc5j3Tts2CYO-19" value="&lt;meta charset=&quot;utf-8&quot;&gt;&lt;b style=&quot;font-weight: normal&quot; id=&quot;docs-internal-guid-f30a47ad-7fff-2271-3fdb-942c01d22b85&quot;&gt;&lt;img width=&quot;427px;&quot; height=&quot;233px;&quot; src=&quot;https://lh4.googleusercontent.com/cX3baqCEhP0QEKilCeb1bDkC7umDt01gu9qKVm4F3bsmFRftQ6dpLyT3rpXBMMJvFEUPq5j3_pVxkunobwqkEMPXo_BuJ8Xzjiq8K43EXCxgIWqDaLQrZ5MDghe1ZVojsV7Mf07lDmeD=s0&quot;&gt;&lt;/b&gt;" style="text;whiteSpace=wrap;html=1;" vertex="1" parent="1">
          <mxGeometry x="760" y="300" width="450" height="250" as="geometry" />
        </mxCell>
        <mxCell id="685ewUTSSc5j3Tts2CYO-21" value="&lt;meta charset=&quot;utf-8&quot;&gt;&lt;b style=&quot;font-weight: normal&quot; id=&quot;docs-internal-guid-60ab520f-7fff-0ccf-c0ac-a90c084ed55a&quot;&gt;&lt;span style=&quot;font-size: 14pt; font-family: arial; color: rgb(0, 0, 0); background-color: transparent; font-weight: 400; font-style: normal; font-variant: normal; text-decoration: none; vertical-align: baseline;&quot;&gt;Inside pages &amp;gt; api&amp;nbsp; create a handler for our data.&lt;/span&gt;&lt;/b&gt;" style="text;whiteSpace=wrap;html=1;" vertex="1" parent="1">
          <mxGeometry x="20" y="470" width="430" height="30" as="geometry" />
        </mxCell>
        <mxCell id="685ewUTSSc5j3Tts2CYO-22" value="&lt;meta charset=&quot;utf-8&quot;&gt;&lt;b style=&quot;font-weight: normal&quot; id=&quot;docs-internal-guid-a11366c0-7fff-963b-0bca-e618610fca4c&quot;&gt;&lt;p dir=&quot;ltr&quot; style=&quot;line-height: 1.2 ; margin-top: 0pt ; margin-bottom: 0pt&quot;&gt;&lt;span style=&quot;font-size: 14pt; font-family: arial; color: rgb(0, 0, 0); background-color: transparent; font-weight: 400; font-style: normal; font-variant: normal; text-decoration: none; vertical-align: baseline;&quot;&gt;If we try to access it by the address, weâ€™ll get this&lt;/span&gt;&lt;/p&gt;&lt;/b&gt;&lt;br class=&quot;Apple-interchange-newline&quot;&gt;" style="text;whiteSpace=wrap;html=1;" vertex="1" parent="1">
          <mxGeometry x="760" y="270" width="430" height="50" as="geometry" />
        </mxCell>
        <mxCell id="685ewUTSSc5j3Tts2CYO-23" value="&lt;meta charset=&quot;utf-8&quot;&gt;&lt;b style=&quot;font-weight: normal&quot; id=&quot;docs-internal-guid-fa5b67ac-7fff-faae-676b-53eb7ed5cdd0&quot;&gt;&lt;span style=&quot;font-size: 14pt; font-family: arial; color: rgb(0, 0, 0); background-color: transparent; font-weight: 400; font-style: normal; font-variant: normal; text-decoration: none; vertical-align: baseline;&quot;&gt;To see that rendered in a page, we write a component&lt;/span&gt;&lt;/b&gt;" style="text;whiteSpace=wrap;html=1;shadow=1;" vertex="1" parent="1">
          <mxGeometry x="20" y="830" width="470" height="30" as="geometry" />
        </mxCell>
        <mxCell id="685ewUTSSc5j3Tts2CYO-28" style="edgeStyle=orthogonalEdgeStyle;curved=1;orthogonalLoop=1;jettySize=auto;html=1;entryX=-0.012;entryY=0.41;entryDx=0;entryDy=0;entryPerimeter=0;endSize=18;targetPerimeterSpacing=4;strokeColor=#FF8000;strokeWidth=3;" edge="1" parent="1" source="685ewUTSSc5j3Tts2CYO-24" target="685ewUTSSc5j3Tts2CYO-27">
          <mxGeometry relative="1" as="geometry" />
        </mxCell>
        <mxCell id="685ewUTSSc5j3Tts2CYO-24" value="&lt;meta charset=&quot;utf-8&quot;&gt;&lt;b style=&quot;font-weight: normal&quot; id=&quot;docs-internal-guid-742df5af-7fff-321e-8246-1895ccb2e8e2&quot;&gt;&lt;img width=&quot;499px;&quot; height=&quot;253px;&quot; src=&quot;https://lh3.googleusercontent.com/Oabrq-7UODjly_jtR6ziWgKtKKb7P5Ac-v46aHYAuIj3CKzc9tnHwC_nqFIN7asjH1UaTew-eJiW0Fy8KzO4aWvdGD_0dRedIFRqFGn4DPIzqs-dD6MXohHZ47DQhpssDkhzIZP3kuwR=s0&quot;&gt;&lt;/b&gt;" style="text;whiteSpace=wrap;html=1;" vertex="1" parent="1">
          <mxGeometry x="20" y="860" width="520" height="270" as="geometry" />
        </mxCell>
        <mxCell id="685ewUTSSc5j3Tts2CYO-27" value="&lt;meta charset=&quot;utf-8&quot;&gt;&lt;b style=&quot;font-weight: normal&quot; id=&quot;docs-internal-guid-b37779a1-7fff-61f7-10f3-4e3f1a07bac1&quot;&gt;&lt;img width=&quot;376px;&quot; height=&quot;205px;&quot; src=&quot;https://lh5.googleusercontent.com/oXFclaJXW_YFP3IredWYVFbWvk0rkje34EHtzqNXRjXaJ5zs-zn6LGQDZvoSerkRvMHVIJ3cQaHWd6N3oQX_gWdc6nMDbhRiu5V7ajvDau33CpHukBrp_ym4WK-_t6Hq17rPE7cQkzCy=s0&quot;&gt;&lt;/b&gt;" style="text;whiteSpace=wrap;html=1;" vertex="1" parent="1">
          <mxGeometry x="760" y="770" width="400" height="220" as="geometry" />
        </mxCell>
        <mxCell id="685ewUTSSc5j3Tts2CYO-30" value="&lt;b style=&quot;font-weight: normal&quot; id=&quot;docs-internal-guid-a11366c0-7fff-963b-0bca-e618610fca4c&quot;&gt;&lt;p dir=&quot;ltr&quot; style=&quot;line-height: 1.2 ; margin-top: 0pt ; margin-bottom: 0pt&quot;&gt;&lt;/p&gt;&lt;/b&gt;&lt;font face=&quot;arial&quot;&gt;&lt;span style=&quot;font-size: 18.6667px&quot;&gt;go to the page by hitting the url.&lt;/span&gt;&lt;/font&gt;" style="text;whiteSpace=wrap;html=1;" vertex="1" parent="1">
          <mxGeometry x="760" y="720" width="430" height="50" as="geometry" />
        </mxCell>
      </root>
    </mxGraphModel>
  </diagram>
  <diagram id="Qx72j-AZy_uG0uCyWsbI" name="Page-2">
    <mxGraphModel dx="993" dy="719" grid="1" gridSize="10" guides="1" tooltips="1" connect="1" arrows="1" fold="1" page="1" pageScale="1" pageWidth="850" pageHeight="1100" math="0" shadow="0">
      <root>
        <mxCell id="tCNb5QWM2RnMNuikkf6_-0" />
        <mxCell id="tCNb5QWM2RnMNuikkf6_-1" parent="tCNb5QWM2RnMNuikkf6_-0" />
      </root>
    </mxGraphModel>
  </diagram>
</mxfile>
